{"title":"Black.Water.Vampire.2014.UNRATED.HDRiP.XViD.AC3-FiRE","uid":9516652,"size":1461943601,"categoryP":"video","categoryS":"movies","magnet":"?xt=urn:btih:913e0ef65e87c0ec9a6ab0a50ebd7ad37a2514f5&amp;dn=Black.Water.Vampire.2014.UNRATED.HDRiP.XViD.AC3-FiRE&amp;tr=udp%3A%2F%2Ftracker.openbittorrent.com%3A80&amp;tr=udp%3A%2F%2Fopen.demonii.com%3A1337&amp;tr=udp%3A%2F%2Ftracker.coppersurfer.tk%3A6969&amp;tr=udp%3A%2F%2Fexodus.desync.com%3A6969","seeders":7,"leechers":5,"uploader":"Acesn8s","files":-1,"time":1390533662,"description":"Black.Water.Vampire.2014.UNRATED.HDRiP.XViD.AC3-FiRE\n\n**********************************************************************************\n\nFormat                                   : AVI\nFormat/Info                              : Audio Video Interleave\nFile size                                : 1.36 GiB\nDuration                                 : 1h 22mn\nOverall bit rate                         : 2 364 Kbps\nWriting application                      : VirtualDubMod 1.5.10.2 \nWriting library                          : VirtualDubMod build 2542/release\n\n**********************************************************************************\n\nVideo\n\nID                                       : 0\nFormat                                   : MPEG-4 Visual\nFormat profile                           : Advanced Simple@L5\nFormat settings, BVOP                    : 2\nFormat settings, QPel                    : No\nFormat settings, GMC                     : No warppoints\nFormat settings, Matrix                  : Default (MPEG)\nMuxing mode                              : Packed bitstream\nCodec ID                                 : XVID\nCodec ID/Hint                            : XviD\nDuration                                 : 1h 22mn\nBit rate                                 : 1 971 Kbps\nWidth                                    : 720 pixels\nHeight                                   : 400 pixels\nDisplay aspect ratio                     : 16:9\nFrame rate                               : 23.976 fps\nColor space                              : YUV\nChroma subsampling                       : 4:2:0\nBit depth                                : 8 bits\nScan type                                : Progressive\nCompression mode                         : Lossy\nBits/(Pixel*Frame)                       : 0.285\nStream size                              : 1.13 GiB (83%)\nWriting library                          : XviD 58\nSource                                   : WEB-DL\n\n**********************************************************************************\n\nAudio\n\nID                                       : 1\nFormat                                   : AC-3\nFormat/Info                              : Audio Coding 3\nMode extension                           : CM (complete main)\nFormat settings, Endianness              : Big\nCodec ID                                 : 2000\nDuration                                 : 1h 22mn\nBit rate mode                            : Constant\nBit rate                                 : 384 Kbps\nChannel(s)                               : 6 channels\nChannel positions                        : Front: L C R, Side: L R, LFE\nSampling rate                            : 48.0 KHz\nBit depth                                : 16 bits\nCompression mode                         : Lossy\nStream size                              : 226 MiB (16%)\nAlignment                                : Split accross interleaves\nInterleave, duration                     : 42 ms (1.00 video frame)\nInterleave, preload duration             : 500 ms\nSource                                   : iTUNES\n\n**********************************************************************************\n\nGenre \n\nHorror | Sci-Fi | Thriller    \n\nActors\n\nDanielle Lozeau, Andrea Monier, Anthony Fanelli\n\nPlot \n\nA documentary film crew investigate a series of brutal killings known as the Black Water murders. As they delve deeper into the story, they stumble upon a horrifying secret. One they may not survive. \n\n**********************************************************************************\n\nIMDb \n  &lt;a href=&quot;\nhttp://www.imdb.com/title/tt2853182/&quot; rel=&quot;nofollow&quot; target=&quot;_NEW&quot;&gt;\nhttp://www.imdb.com/title/tt2853182/&lt;/a&gt;\n\n**********************************************************************************\n\nScreens \n &lt;a href=&quot;\nhttp://img.acianetmedia.com/i/TNUjZ.jpg&quot; rel=&quot;nofollow&quot; target=&quot;_NEW&quot;&gt;\nhttp://img.acianetmedia.com/i/TNUjZ.jpg&lt;/a&gt;\n &lt;a href=&quot;\nhttp://img.acianetmedia.com/i/YORCH.jpg&quot; rel=&quot;nofollow&quot; target=&quot;_NEW&quot;&gt;\nhttp://img.acianetmedia.com/i/YORCH.jpg&lt;/a&gt;\n &lt;a href=&quot;\nhttp://img.acianetmedia.com/i/pYtem.jpg&quot; rel=&quot;nofollow&quot; target=&quot;_NEW&quot;&gt;\nhttp://img.acianetmedia.com/i/pYtem.jpg&lt;/a&gt;\n &lt;a href=&quot;\nhttp://img.acianetmedia.com/i/bLaSr.jpg&quot; rel=&quot;nofollow&quot; target=&quot;_NEW&quot;&gt;\nhttp://img.acianetmedia.com/i/bLaSr.jpg&lt;/a&gt;\n &lt;a href=&quot;\nhttp://img.acianetmedia.com/i/uwJ9.jpg&quot; rel=&quot;nofollow&quot; target=&quot;_NEW&quot;&gt;\nhttp://img.acianetmedia.com/i/uwJ9.jpg&lt;/a&gt;","torrent":{"xt":"urn:btih:913e0ef65e87c0ec9a6ab0a50ebd7ad37a2514f5","amp;dn":"Black.Water.Vampire.2014.UNRATED.HDRiP.XViD.AC3-FiRE","amp;tr":["udp%3A%2F%2Ftracker.openbittorrent.com%3A80","udp%3A%2F%2Fopen.demonii.com%3A1337","udp%3A%2F%2Ftracker.coppersurfer.tk%3A6969","udp%3A%2F%2Fexodus.desync.com%3A6969"],"infoHash":"913e0ef65e87c0ec9a6ab0a50ebd7ad37a2514f5","infoHashBuffer":{"type":"Buffer","data":[145,62,14,246,94,135,192,236,154,106,176,165,14,189,122,211,122,37,20,245]},"announce":[],"urlList":[]}}